<?xml version="1.0" encoding="UTF-8"?>
<svg version="1.1" xmlns="http://www.w3.org/2000/svg" width="128" height="128">
<path d="M0 0 C5.9952171 2.63204653 8.59888122 8.76362901 10.90234375 14.54296875 C11.33650352 15.58980583 11.33650352 15.58980583 11.7794342 16.65779114 C12.6964417 18.87200991 13.59929682 21.09160462 14.5 23.3125 C15.68882756 26.22591493 16.88476309 29.13623801 18.08984375 32.04296875 C18.37910736 32.74082489 18.66837097 33.43868103 18.96640015 34.15768433 C21.44278927 40.03494524 24.33592576 45.62154061 27.5625 51.125 C34.43867319 50.9054314 38.86584876 49.30257816 44.5 45.4375 C45.8942504 44.52561211 47.28878115 43.61415272 48.68359375 42.703125 C49.68108643 42.03893555 49.68108643 42.03893555 50.69873047 41.36132812 C67.91371218 29.94180135 67.91371218 29.94180135 78.5625 31.125 C83.31145502 32.74989703 86.62617932 35.41606953 88.90234375 40.0078125 C90.70367822 45.78487335 90.44893443 51.90354427 88 57.4375 C83.4144241 65.00637584 75.40043622 69.32240938 68.0625 73.875 C62.10638836 77.60693783 56.17087828 81.34223901 50.37524414 85.31982422 C29.15231949 99.86860354 29.15231949 99.86860354 19.5625 98.125 C14.46505607 95.92383103 11.47424676 92.24841253 9.30004883 87.18481445 C5.32741514 74.43103648 2.6907142 61.40100408 0.05834961 48.31469727 C-0.61547917 44.96612128 -1.30672384 41.6214091 -2.00274372 38.27738476 C-2.67476803 35.0346322 -3.33065693 31.7886722 -3.98828125 28.54296875 C-4.23508133 27.35938278 -4.48188141 26.17579681 -4.73616028 24.9563446 C-8.27698854 7.12268503 -8.27698854 7.12268503 -4.75 1.375 C-2.4375 0.125 -2.4375 0.125 0 0 Z " fill="white" transform="translate(9.4375,14.875)"/>
<path d="M0 0 C3.64450372 1.82225186 5.59278629 3.42201925 7.9375 6.75 C9.27684124 10.84680851 9.38461749 13.90524705 8 18 C5.19004958 21.59049221 2.51269338 24.07694908 -2 25 C-6.53966456 24.67399177 -9.95962641 23.85830821 -13.5 20.9375 C-15.52765624 16.96667319 -16.33059849 13.46307968 -16 9 C-12.55784805 1.85091519 -7.89868362 -0.97001378 0 0 Z " fill="white" transform="translate(117,32)"/>
</svg>
